# xmcd
#
# Track frame offsets: 
#        150
#        16144
#        28572
#        43077
#        56397
#        70248
#        83459
#        97130
#        110028
#        123770
#        135115
#        147640
#        157875
#        170938
#        183860
#
# Disc length: 2581 seconds
#
# Revision: 0
# Processed by: cddbd v1.5.2PL0 Copyright (c) Steve Scherf et al.
# Submitted via: ExactAudioCopy v1.3
#
DISCID=c20a130f
DTITLE=Various Artist - Simply Country - CD4
DYEAR=2012
DGENRE=Country
TTITLE0=Jimmie Rodgers - Blue Yodel
TTITLE1=Bill Monroe - Muleskinner Blues
TTITLE2=The Carter Family - Wildwood Flower
TTITLE3=Hank Williams - Hey, Good Lookin'
TTITLE4=Lefty Frizzell - The Long Black Veil
TTITLE5=The Sons of the Pioneers - Cool Water
TTITLE6=Pee Wee King and His Golden West Cowboys - Slow Poke
TTITLE7=Gene Autry - South Of The Border
TTITLE8=Ernest Tubb - Goodnight, Irene
TTITLE9=Billy Boyd and His Cowboy Ramblers - New Steel Guitar Rag
TTITLE10=Willie Nelson - The Shelter Of Your Arms
TTITLE11=The Stanley Brothers - The Girl Behind The Bar
TTITLE12=Bob Wills and His Texas Playboys - Faded Love
TTITLE13=Jimmie Davis - You Are My Sunshine
TTITLE14=Johnny Cash - Born To Lose
EXTD=
EXTT0=
EXTT1=
EXTT2=
EXTT3=
EXTT4=
EXTT5=
EXTT6=
EXTT7=
EXTT8=
EXTT9=
EXTT10=
EXTT11=
EXTT12=
EXTT13=
EXTT14=
PLAYORDER=
